<svg xmlns="http://www.w3.org/2000/svg" xmlns:xlink="http://www.w3.org/1999/xlink"
    version="1.1" width="14" height="14.000043869018555" viewBox="0 0 14 14.000043869018555">
    <g>
        <path
            d="M6.5625,0C6.80412,0,7,0.25066,7,0.559937L7,3.35999C7,3.66926,6.80413,3.91992,6.5625,3.91992L0.4375,3.91997C0.195875,3.91997,0,3.66925,0,3.35997L0,0.559996C0,0.250719,0.195875,0,0.4375,0L6.5625,0ZM12,4C13.1046,4,14,3.10457,14,2C14,0.895431,13.1046,0,12,0C10.8954,0,10,0.895431,10,2C10,3.10457,10.8954,4,12,4ZM12,9C13.1046,9,14,8.10457,14,7C14,5.89543,13.1046,5,12,5C10.8954,5,10,5.89543,10,7C10,8.10457,10.8954,9,12,9ZM0.4375,5.03996C0.195875,5.03996,0,5.29068,0,5.59995L0,8.39993C0,8.70921,0.195875,8.95992,0.4375,8.95992L6.5625,8.95996C6.80413,8.95996,7,8.70918,7,8.3999L7,5.59998C7,5.2907,6.80413,5.03992,6.5625,5.03992L0.4375,5.03996ZM0.4375,10.0801C0.195875,10.0801,0,10.3308,0,10.6401L0,13.44C0,13.7493,0.195875,14,0.4375,14L13.5625,14C13.8041,14,14,13.7493,14,13.44L14,10.6401C14,10.3308,13.8041,10.0801,13.5625,10.0801L0.4375,10.0801Z"
            fill-rule="evenodd" fill-opacity="1" style="mix-blend-mode:passthrough" />
    </g>
</svg>