<svg xmlns="http://www.w3.org/2000/svg" xmlns:xlink="http://www.w3.org/1999/xlink"
    version="1.1" width="14" height="14" viewBox="0 0 14 14">
    <g>
        <path
            d="M2.75911,1.83352L11.2349,1.83352L11.2349,1.0235C11.2349,0.45765,10.7606,0,10.1743,0L3.81972,0C3.23336,0,2.75911,0.45765,2.75911,1.0235L2.75911,1.83352ZM13.1015,2.42715L0.872727,2.42715C0.4,2.49587,0.0333333,2.87457,0,3.34245L0,9.75687C0.0363637,10.2204,0.4,10.5947,0.869697,10.6649L2.11061,10.6649L2.11061,8.033C2.11212,7.61775,2.51818,7.28146,3.0197,7.28146L11.0242,7.28146C11.4773,7.29608,11.8455,7.58705,11.8909,7.95697L11.8909,10.6649L13.0909,10.6649C13.5742,10.6122,13.9561,10.2379,14,9.76856L14,3.2752C13.9348,2.8307,13.5652,2.48125,13.1015,2.42715ZM11.8712,4.97861C11.8712,5.30889,11.5938,5.57663,11.2515,5.57663C10.9093,5.57663,10.6318,5.30889,10.6318,4.97861C10.6318,4.64834,10.9093,4.3806,11.2515,4.3806C11.5938,4.3806,11.8712,4.64834,11.8712,4.97861ZM11.2349,8.58715L11.2349,13.4283C11.1743,13.7149,10.9303,13.9415,10.6182,14L3.44699,14C3.10002,13.9547,2.82427,13.7003,2.77881,13.3786L2.77881,8.66026C2.77881,8.26256,3.13033,7.93943,3.56366,7.93943L10.4864,7.93943C10.8773,7.95405,11.1955,8.23185,11.2349,8.58715Z"
            fill-rule="evenodd" fill-opacity="1" style="mix-blend-mode:passthrough" />
    </g>
</svg>