<svg xmlns="http://www.w3.org/2000/svg" xmlns:xlink="http://www.w3.org/1999/xlink"
    version="1.1" width="14" height="14" viewBox="0 0 14 14">
    <g>
        <path
            d="M13.3151,6.15177L13.5394,6.27993C13.9993,6.543,14.1383,7.09444,13.8491,7.51433C13.7712,7.62732,13.6655,7.72344,13.5394,7.79595L7.52657,11.231C7.20581,11.4132,6.79976,11.4132,6.48085,11.231L0.460563,7.78921C0.000744065,7.52614,-0.138314,6.97471,0.150927,6.55481C0.228799,6.44182,0.334483,6.3457,0.460563,6.27319L0.68491,6.14503L6.479,9.45868C6.79976,9.64081,7.20581,9.64081,7.52471,9.45868L13.3132,6.15346L13.3151,6.15177ZM13.3151,8.78415L13.5394,8.91231C13.9993,9.17538,14.1383,9.72681,13.8491,10.1467C13.7712,10.2597,13.6655,10.3558,13.5394,10.4283L7.52657,13.8634C7.20581,14.0455,6.79976,14.0455,6.48085,13.8634L0.460563,10.4216C0.000744065,10.1585,-0.138314,9.60708,0.150927,9.18718C0.228799,9.0742,0.334483,8.97808,0.460563,8.90556L0.68491,8.7774L6.479,12.0894C6.79976,12.2715,7.20581,12.2715,7.52471,12.0894L13.3132,8.78415L13.3151,8.78415ZM7.51915,0.139967L13.5376,3.58179C13.9974,3.84486,14.1365,4.39629,13.8472,4.81619C13.7693,4.92917,13.6637,5.0253,13.5376,5.09781L7.52657,8.5312C7.20581,8.71332,6.79976,8.71332,6.48085,8.5312L0.460563,5.08769C0.000744065,4.82462,-0.138314,4.27319,0.150927,3.85329C0.228799,3.7403,0.334483,3.64418,0.460563,3.57167L6.47529,0.136594C6.79605,-0.0455311,7.2021,-0.0455311,7.52101,0.136594L7.51915,0.139967Z"
            fill-opacity="1" style="mix-blend-mode:passthrough" />
    </g>
</svg>