<svg xmlns="http://www.w3.org/2000/svg" xmlns:xlink="http://www.w3.org/1999/xlink"
    version="1.1" width="14" height="14" viewBox="0 0 14 14">
    <g>
        <path
            d="M13.8117,8.258Q14.2072,6.67592,13.7721,5.64336L12.2588,5.56908C12.1262,5.09414,11.932,4.64627,11.6853,4.23196L12.7061,3.07296Q11.8671,1.67466,10.8293,1.25214L9.70527,2.27102C9.28654,2.02744,8.83358,1.83875,8.35447,1.71099L8.25802,0.188351Q6.676,-0.207218,5.64338,0.227975L5.57152,1.69155C5.09932,1.81024,4.65003,1.98539,4.23471,2.21654L3.17073,1.25212Q2.1329,1.67464,1.29388,3.07294C1.56057,3.37565,2.08527,3.72322,2.11675,4.16829C2.12451,4.27817,1.61175,5.57541,1.58964,5.57653L0.227914,5.64335Q-0.207157,6.67589,0.18829,8.25798L1.53784,8.3435C1.66529,8.88012,1.86982,9.38555,2.14061,9.84906L1.25208,10.8292Q1.6746,11.8671,3.07291,12.7061L4.08558,11.8142C4.54437,12.0888,5.04521,12.298,5.57755,12.4313L5.64338,13.7721Q6.67599,14.2072,8.25802,13.8117L8.34671,12.4123C8.88582,12.2694,9.39181,12.0485,9.85327,11.7603L10.9271,12.7061Q12.3254,11.8672,12.748,10.8293L11.7698,9.75019C12.0108,9.31718,12.1916,8.84757,12.31,8.35313L13.8117,8.258ZM7.00001,10.2506C5.20477,10.2506,3.74944,8.79529,3.74944,7C3.74944,5.20477,5.20477,3.74945,7.00001,3.74945C8.79525,3.74945,10.2506,5.20477,10.2506,7C10.2506,8.79531,8.79524,10.2506,7.00001,10.2506Z"
            fill-opacity="1" />
    </g>
</svg>